<svg width="259" height="51" viewBox="0 0 259 51" fill="none" xmlns="http://www.w3.org/2000/svg">
<path d="M249.13 39.7595C248.719 39.7595 248.402 39.6288 248.178 39.3675C247.991 39.1062 247.935 38.7702 248.01 38.3595L249.298 32.0875C249.372 31.6768 249.578 31.3408 249.914 31.0795C250.25 30.8182 250.623 30.6875 251.034 30.6875H257.306C257.716 30.6875 258.015 30.8182 258.202 31.0795C258.426 31.3408 258.5 31.6768 258.426 32.0875L257.082 38.3595C257.007 38.7702 256.802 39.1062 256.466 39.3675C256.167 39.6288 255.812 39.7595 255.402 39.7595H249.13Z" fill="#333333"/>
<path d="M220.626 50.4006C220.178 50.4006 219.879 50.1953 219.73 49.7846C219.581 49.4113 219.655 49.0193 219.954 48.6086L226.786 37.8566L221.298 12.2646C221.223 11.854 221.298 11.4806 221.522 11.1446C221.783 10.8086 222.194 10.6406 222.754 10.6406H227.85C228.298 10.6406 228.615 10.7526 228.802 10.9766C229.026 11.2006 229.157 11.462 229.194 11.7606L232.61 29.1206L243.586 11.7606C243.773 11.462 243.997 11.2006 244.258 10.9766C244.557 10.7526 244.949 10.6406 245.434 10.6406H251.146C251.557 10.6406 251.855 10.8086 252.042 11.1446C252.229 11.4806 252.191 11.8726 251.93 12.3206L228.074 49.2806C227.925 49.5793 227.701 49.8406 227.402 50.0646C227.103 50.2886 226.711 50.4006 226.226 50.4006H220.626Z" fill="#333333"/>
<path d="M203.525 39.76C203.152 39.76 202.853 39.6293 202.629 39.368C202.405 39.1067 202.33 38.7707 202.405 38.36L210.301 1.4C210.376 0.989333 210.562 0.653334 210.861 0.392002C211.197 0.130668 211.552 0 211.925 0H217.525C217.936 0 218.234 0.130668 218.421 0.392002C218.645 0.653334 218.72 0.989333 218.645 1.4L210.749 38.36C210.674 38.7707 210.488 39.1067 210.189 39.368C209.89 39.6293 209.536 39.76 209.125 39.76H203.525Z" fill="#333333"/>
<path d="M191.688 39.76C189.149 39.76 187.115 39.3867 185.584 38.64C184.053 37.856 183.027 36.6613 182.504 35.056C182.019 33.4507 182.019 31.4347 182.504 29.008L185.024 17.248H180.656C180.245 17.248 179.928 17.1173 179.704 16.856C179.517 16.5947 179.461 16.2587 179.536 15.848L180.32 12.04C180.395 11.6293 180.6 11.2933 180.936 11.032C181.272 10.7707 181.627 10.64 182 10.64H186.424L188.384 1.4C188.459 0.989333 188.645 0.653334 188.944 0.392002C189.28 0.130668 189.653 0 190.064 0H195.552C195.925 0 196.224 0.130668 196.448 0.392002C196.672 0.653334 196.747 0.989333 196.672 1.4L194.656 10.64H201.656C202.067 10.64 202.365 10.7707 202.552 11.032C202.739 11.2933 202.795 11.6293 202.72 12.04L201.936 15.848C201.861 16.2587 201.656 16.5947 201.32 16.856C201.021 17.1173 200.667 17.248 200.256 17.248H193.256L190.904 28.336C190.717 29.2693 190.605 30.0907 190.568 30.8C190.568 31.472 190.755 31.9947 191.128 32.368C191.539 32.704 192.229 32.872 193.2 32.872H197.456C197.829 32.872 198.109 33.0027 198.296 33.264C198.52 33.5253 198.595 33.8427 198.52 34.216L197.624 38.36C197.549 38.7707 197.363 39.1067 197.064 39.368C196.765 39.6293 196.411 39.76 196 39.76H191.688Z" fill="#333333"/>
<path d="M143.697 39.7601C143.323 39.7601 143.025 39.6294 142.801 39.3681C142.577 39.1067 142.502 38.7707 142.577 38.3601L148.177 12.0401C148.252 11.6294 148.457 11.2934 148.793 11.0321C149.129 10.7707 149.483 10.6401 149.857 10.6401H155.345C155.756 10.6401 156.054 10.7707 156.241 11.0321C156.427 11.2934 156.483 11.6294 156.409 12.0401L155.961 14.2241C157.118 13.0294 158.499 12.0401 160.105 11.2561C161.747 10.4721 163.596 10.0801 165.649 10.0801C168.113 10.0801 170.091 10.5841 171.585 11.5921C173.115 12.5627 174.142 14.0001 174.665 15.9041C175.225 17.7707 175.225 20.0481 174.665 22.7361L171.305 38.3601C171.23 38.7707 171.025 39.1067 170.689 39.3681C170.39 39.6294 170.035 39.7601 169.625 39.7601H163.689C163.315 39.7601 163.017 39.6294 162.793 39.3681C162.569 39.1067 162.494 38.7707 162.569 38.3601L165.817 23.0721C166.265 20.9814 166.209 19.4134 165.649 18.3681C165.126 17.3227 163.894 16.8001 161.953 16.8001C160.049 16.8001 158.425 17.3601 157.081 18.4801C155.774 19.5627 154.916 21.0934 154.505 23.0721L151.257 38.3601C151.182 38.7707 150.977 39.1067 150.641 39.3681C150.342 39.6294 150.006 39.7601 149.633 39.7601H143.697Z" fill="#333333"/>
<path d="M118.821 40.3201C116.954 40.3201 115.33 40.0214 113.949 39.4241C112.605 38.7894 111.541 37.8934 110.757 36.7361C109.973 35.5414 109.45 34.1414 109.189 32.5361C108.965 30.8934 109.021 29.0827 109.357 27.1041C109.469 26.3947 109.581 25.7601 109.693 25.2001C109.842 24.6027 109.992 23.9681 110.141 23.2961C110.626 21.3547 111.28 19.5814 112.101 17.9761C112.922 16.3707 113.93 14.9894 115.125 13.8321C116.32 12.6374 117.701 11.7227 119.269 11.0881C120.874 10.4161 122.666 10.0801 124.645 10.0801C126.96 10.0801 128.714 10.4347 129.909 11.1441C131.104 11.8161 132.037 12.6561 132.709 13.6641L133.045 12.0401C133.12 11.6294 133.306 11.2934 133.605 11.0321C133.941 10.7707 134.296 10.6401 134.669 10.6401H139.989C140.4 10.6401 140.698 10.7707 140.885 11.0321C141.109 11.2934 141.184 11.6294 141.109 12.0401L135.509 38.3601C135.434 38.7707 135.248 39.1067 134.949 39.3681C134.65 39.6294 134.296 39.7601 133.885 39.7601H128.565C128.154 39.7601 127.837 39.6294 127.613 39.3681C127.426 39.1067 127.37 38.7707 127.445 38.3601L127.837 36.4561C126.717 37.5761 125.485 38.5094 124.141 39.2561C122.797 39.9654 121.024 40.3201 118.821 40.3201ZM122.013 33.6001C123.432 33.6001 124.626 33.2827 125.597 32.6481C126.605 32.0134 127.408 31.2107 128.005 30.2401C128.64 29.2694 129.106 28.2241 129.405 27.1041C129.592 26.3947 129.76 25.6854 129.909 24.9761C130.058 24.2667 130.189 23.5761 130.301 22.9041C130.488 21.8587 130.488 20.8881 130.301 19.9921C130.114 19.0587 129.666 18.2934 128.957 17.6961C128.285 17.0987 127.277 16.8001 125.933 16.8001C124.626 16.8001 123.506 17.1174 122.573 17.7521C121.64 18.3494 120.874 19.1521 120.277 20.1601C119.68 21.1681 119.213 22.2694 118.877 23.4641C118.728 24.0241 118.578 24.6027 118.429 25.2001C118.28 25.7974 118.168 26.3761 118.093 26.9361C117.944 28.1307 117.906 29.2321 117.981 30.2401C118.093 31.2481 118.466 32.0694 119.101 32.7041C119.736 33.3014 120.706 33.6001 122.013 33.6001Z" fill="#333333"/>
<path d="M97.352 39.76C94.8133 39.76 92.7786 39.3867 91.248 38.64C89.7173 37.856 88.6906 36.6613 88.168 35.056C87.6826 33.4507 87.6826 31.4347 88.168 29.008L90.688 17.248H86.32C85.9093 17.248 85.592 17.1173 85.368 16.856C85.1813 16.5947 85.1253 16.2587 85.2 15.848L85.984 12.04C86.0586 11.6293 86.264 11.2933 86.6 11.032C86.936 10.7707 87.2906 10.64 87.664 10.64H92.088L94.048 1.4C94.1226 0.989333 94.3093 0.653334 94.608 0.392002C94.944 0.130668 95.3173 0 95.728 0H101.216C101.589 0 101.888 0.130668 102.112 0.392002C102.336 0.653334 102.411 0.989333 102.336 1.4L100.32 10.64H107.32C107.731 10.64 108.029 10.7707 108.216 11.032C108.403 11.2933 108.459 11.6293 108.384 12.04L107.6 15.848C107.525 16.2587 107.32 16.5947 106.984 16.856C106.685 17.1173 106.331 17.248 105.92 17.248H98.92L96.568 28.336C96.3813 29.2693 96.2693 30.0907 96.232 30.8C96.232 31.472 96.4186 31.9947 96.792 32.368C97.2026 32.704 97.8933 32.872 98.864 32.872H103.12C103.493 32.872 103.773 33.0027 103.96 33.264C104.184 33.5253 104.259 33.8427 104.184 34.216L103.288 38.36C103.213 38.7707 103.027 39.1067 102.728 39.368C102.429 39.6293 102.075 39.76 101.664 39.76H97.352Z" fill="#333333"/>
<path d="M64.9803 40.3201C62.6656 40.3201 60.7243 40.0587 59.1563 39.5361C57.6256 38.9761 56.4309 38.3041 55.5723 37.5201C54.7136 36.7361 54.1163 35.9521 53.7803 35.1681C53.4816 34.3467 53.3696 33.6561 53.4443 33.0961C53.5189 32.6854 53.7056 32.3494 54.0043 32.0881C54.3403 31.8267 54.6763 31.6961 55.0123 31.6961H60.3883C60.5376 31.6961 60.6496 31.7147 60.7243 31.7521C60.8363 31.7894 60.9483 31.8827 61.0603 32.0321C61.4709 32.3681 61.8816 32.7601 62.2923 33.2081C62.7403 33.6187 63.2816 33.9734 63.9163 34.2721C64.5509 34.5707 65.3723 34.7201 66.3803 34.7201C67.6123 34.7201 68.7136 34.4774 69.6843 33.9921C70.6549 33.4694 71.2336 32.7414 71.4203 31.8081C71.5696 31.1361 71.4949 30.5761 71.1963 30.1281C70.8976 29.6801 70.2443 29.2694 69.2363 28.8961C68.2283 28.5227 66.7163 28.1121 64.7003 27.6641C62.7963 27.2161 61.2096 26.6187 59.9403 25.8721C58.7083 25.1254 57.8496 24.1921 57.3643 23.0721C56.8789 21.9147 56.8043 20.5334 57.1403 18.9281C57.4763 17.4721 58.2229 16.0721 59.3803 14.7281C60.5749 13.3841 62.1616 12.2827 64.1403 11.4241C66.1563 10.5281 68.5083 10.0801 71.1963 10.0801C73.2496 10.0801 75.0043 10.3414 76.4603 10.8641C77.9163 11.3494 79.0736 11.9841 79.9323 12.7681C80.8283 13.5147 81.4443 14.2987 81.7803 15.1201C82.1536 15.9041 82.2843 16.5947 82.1723 17.1921C82.1349 17.5654 81.9483 17.8827 81.6123 18.1441C81.3136 18.4054 80.9963 18.5361 80.6603 18.5361H75.7323C75.5456 18.5361 75.3776 18.5174 75.2283 18.4801C75.1163 18.4054 75.0229 18.3121 74.9483 18.2001C74.5376 17.9014 74.1456 17.5654 73.7723 17.1921C73.3989 16.7814 72.9136 16.4267 72.3163 16.1281C71.7563 15.8294 70.9723 15.6801 69.9643 15.6801C68.7323 15.6801 67.7243 15.9601 66.9403 16.5201C66.1936 17.0427 65.7269 17.7147 65.5403 18.5361C65.4283 19.0587 65.4843 19.5441 65.7083 19.9921C65.9696 20.4401 66.5669 20.8507 67.5003 21.2241C68.4709 21.5974 69.9829 21.9894 72.0363 22.4001C74.4629 22.8481 76.3296 23.5201 77.6363 24.4161C78.9803 25.3121 79.8389 26.3574 80.2123 27.5521C80.6229 28.7094 80.6789 29.9601 80.3803 31.3041C80.0443 33.0587 79.2043 34.6267 77.8603 36.0081C76.5163 37.3521 74.7616 38.4161 72.5963 39.2001C70.4309 39.9467 67.8923 40.3201 64.9803 40.3201Z" fill="#333333"/>
<path d="M18.7906 39.7601C18.4172 39.7601 18.1186 39.6294 17.8946 39.3681C17.6706 39.1067 17.5959 38.7707 17.6706 38.3601L23.2706 12.0401C23.3452 11.6294 23.5506 11.2934 23.8866 11.0321C24.2226 10.7707 24.5772 10.6401 24.9506 10.6401H30.4386C30.8492 10.6401 31.1479 10.7707 31.3346 11.0321C31.5212 11.2934 31.5772 11.6294 31.5026 12.0401L31.0546 14.2241C32.2119 13.0294 33.5932 12.0401 35.1986 11.2561C36.8412 10.4721 38.6892 10.0801 40.7426 10.0801C43.2066 10.0801 45.1852 10.5841 46.6786 11.5921C48.2092 12.5627 49.2359 14.0001 49.7586 15.9041C50.3186 17.7707 50.3186 20.0481 49.7586 22.7361L46.3986 38.3601C46.3239 38.7707 46.1186 39.1067 45.7826 39.3681C45.4839 39.6294 45.1292 39.7601 44.7186 39.7601H38.7826C38.4092 39.7601 38.1106 39.6294 37.8866 39.3681C37.6626 39.1067 37.5879 38.7707 37.6626 38.3601L40.9106 23.0721C41.3586 20.9814 41.3026 19.4134 40.7426 18.3681C40.2199 17.3227 38.9879 16.8001 37.0466 16.8001C35.1426 16.8001 33.5186 17.3601 32.1746 18.4801C30.8679 19.5627 30.0092 21.0934 29.5986 23.0721L26.3506 38.3601C26.2759 38.7707 26.0706 39.1067 25.7346 39.3681C25.4359 39.6294 25.0999 39.7601 24.7266 39.7601H18.7906Z" fill="#333333"/>
<path d="M2.01626 39.7606C1.60559 39.7606 1.28826 39.6299 1.06426 39.3686C0.877591 39.1072 0.821591 38.7712 0.896258 38.3605L8.68026 1.96055C8.75493 1.54988 8.94159 1.21388 9.24026 0.952549C9.57626 0.691215 9.93092 0.560547 10.3043 0.560547H16.6883C17.0616 0.560547 17.3603 0.691215 17.5843 0.952549C17.8083 1.21388 17.8829 1.54988 17.8083 1.96055L10.0243 38.3605C9.94959 38.7712 9.74426 39.1072 9.40826 39.3686C9.10959 39.6299 8.77359 39.7606 8.40026 39.7606H2.01626Z" fill="#333333"/>
<path d="M178 27.7598H191.735L191.306 29.7598H178V27.7598Z" fill="#333333"/>
<path d="M194.209 25.7598L192.923 31.7598H176V25.7598H194.209ZM178 29.7598H191.307L191.734 27.7598H178V29.7598Z" fill="white"/>
<path d="M184 23.7598H192.5L192 25.7598H184V23.7598Z" fill="#333333"/>
<path d="M195.062 21.7598L193.562 27.7598H182V21.7598H195.062ZM184 25.7598H192L192.5 23.7598H184V25.7598Z" fill="white"/>
<path d="M161 19.7598H193L192.672 21.7598H161V19.7598Z" fill="#333333"/>
<path d="M195.354 17.7598L194.37 23.7598H159V17.7598H195.354ZM161 21.7598H192.672L193 19.7598H161V21.7598Z" fill="white"/>
<path d="M138.5 23.7598H130L129.5 25.7598H138L138.5 23.7598Z" fill="#333333"/>
<path d="M128.438 21.7598L126.938 27.7598H139.562L141.062 21.7598H128.438ZM138.5 23.7598L138 25.7598H129.5L130 23.7598H138.5Z" fill="white"/>
<path d="M158 27.7598H128.5L128 29.7598H158V27.7598Z" fill="#333333"/>
<path d="M126.938 25.7598L125.438 31.7598H160V25.7598H126.938ZM158 29.7598H128L128.5 27.7598H158V29.7598Z" fill="white"/>
<path d="M204.5 27.7598H218L217.313 29.7598H204L204.5 27.7598Z" fill="#333333"/>
<path d="M220.802 25.7598L218.741 31.7598H201.438L202.938 25.7598H220.802ZM204.5 27.7598L204 29.7598H217.313L218 27.7598H204.5Z" fill="white"/>
<path d="M203.529 31.7598H211.5L211 33.7598H203L203.529 31.7598Z" fill="#333333"/>
<path d="M214.062 29.7598L212.562 35.7598H200.401L201.99 29.7598H214.062ZM203.529 31.7598L203 33.7598H211L211.5 31.7598H203.529Z" fill="white"/>
<path d="M202 35.7598H237L235.591 37.7598H202V35.7598Z" fill="#333333"/>
<path d="M240.854 33.7598L236.629 39.7598H200V33.7598H240.854ZM202 37.7598H235.592L237 35.7598H202V37.7598Z" fill="white"/>
<path d="M75.5 18.7598H99L98.1576 20.7598H75.5V18.7598Z" fill="#333333"/>
<path d="M102.013 16.7598L99.4854 22.7598H73.5V16.7598H102.013ZM75.5 20.7598H98.1572L99 18.7598H75.5V20.7598Z" fill="white"/>
<path d="M89 22.7598H97.8734L97.4414 24.7598H89V22.7598Z" fill="#333333"/>
<path d="M100.352 20.7598L99.0557 26.7598H87V20.7598H100.352ZM89 24.7598H97.4414L97.873 22.7598H89V24.7598Z" fill="white"/>
<path d="M56 26.7598H97L96.5796 28.7598H56V26.7598Z" fill="#333333"/>
<path d="M99.4639 24.7598L98.2031 30.7598H54V24.7598H99.4639ZM56 28.7598H96.5801L97 26.7598H56V28.7598Z" fill="white"/>
<path d="M2 14.7598H15.0703L14.6484 16.7598H2V14.7598Z" fill="#333333"/>
<path d="M17.5361 12.7598L16.2705 18.7598H0V12.7598H17.5361ZM2 16.7598H14.6484L15.0703 14.7598H2V16.7598Z" fill="white"/>
<path d="M5.5 18.7598H14.3711L13.9141 20.7598H5L5.5 18.7598Z" fill="#333333"/>
<path d="M15.8799 20.7598L14.5088 26.7598H1.43848L2.93848 20.7598H15.8799ZM4.5 22.7598L4 24.7598H12.9141L13.3711 22.7598H4.5Z" fill="white"/>
<path d="M4.67239 22.7598H13.5002L13.0744 24.7598H4.30078L4.67239 22.7598Z" fill="#333333"/>
<path d="M32 24.7012L29.0962 30.7012H0L2.53531 24.7012H32ZM6.31608 26.7012L5.47024 28.7012H25.4153L26.3832 26.7012H6.31608Z" fill="white"/>
<path d="M3.62254 26.7598H29.0002L28.3299 28.7598H3L3.62254 26.7598Z" fill="#333333"/>
</svg>
