<svg width="18" height="22" viewBox="0 0 18 22" fill="none" xmlns="http://www.w3.org/2000/svg">
<path d="M9 0C6.61305 0 4.32387 0.948212 2.63604 2.63604C0.948211 4.32387 0 6.61305 0 9C0 16.11 8.2875 20.715 8.64 20.91C8.75401 20.9758 8.88335 21.0105 9.015 21.0105C9.14665 21.0105 9.27599 20.9758 9.39 20.91C9.75 20.715 18 16.11 18 9C18 6.61305 17.0518 4.32387 15.364 2.63604C13.6761 0.948212 11.3869 0 9 0ZM9 14.25C7.96165 14.25 6.94661 13.9421 6.08326 13.3652C5.2199 12.7883 4.54699 11.9684 4.14963 11.0091C3.75227 10.0498 3.64831 8.99418 3.85088 7.97578C4.05345 6.95738 4.55346 6.02192 5.28769 5.28769C6.02192 4.55346 6.95738 4.05345 7.97578 3.85088C8.99418 3.6483 10.0498 3.75227 11.0091 4.14963C11.9684 4.54699 12.7883 5.2199 13.3652 6.08326C13.9421 6.94662 14.25 7.96165 14.25 9C14.25 10.3924 13.6969 11.7277 12.7123 12.7123C11.7277 13.6969 10.3924 14.25 9 14.25Z" fill="#D0D6DF"/>
<path d="M11.25 8.25H9.75V6.75C9.75 6.55109 9.67098 6.36032 9.53033 6.21967C9.38968 6.07902 9.19891 6 9 6C8.80109 6 8.61032 6.07902 8.46967 6.21967C8.32902 6.36032 8.25 6.55109 8.25 6.75V8.25H6.75C6.55109 8.25 6.36032 8.32902 6.21967 8.46967C6.07902 8.61032 6 8.80109 6 9C6 9.19891 6.07902 9.38968 6.21967 9.53033C6.36032 9.67098 6.55109 9.75 6.75 9.75H8.25V11.25C8.25 11.4489 8.32902 11.6397 8.46967 11.7803C8.61032 11.921 8.80109 12 9 12C9.19891 12 9.38968 11.921 9.53033 11.7803C9.67098 11.6397 9.75 11.4489 9.75 11.25V9.75H11.25C11.4489 9.75 11.6397 9.67098 11.7803 9.53033C11.921 9.38968 12 9.19891 12 9C12 8.80109 11.921 8.61032 11.7803 8.46967C11.6397 8.32902 11.4489 8.25 11.25 8.25Z" fill="#D0D6DF"/>
</svg>
